<?xml version="1.0" encoding="UTF-8"?>
<svg id="Layer_2" data-name="Layer 2" xmlns="http://www.w3.org/2000/svg" viewBox="0 0 1245.64 323.75">
  <defs>
    <style>
      .cls-1 {
        fill: #fff;
        stroke-width: 0px;
      }
    </style>
  </defs>
  <g id="Layer_1-2" data-name="Layer 1">
    <g>
      <polygon class="cls-1" points="541.72 204.96 508.68 204.96 473.19 150.7 437.66 204.96 404.42 204.96 456.59 125.38 407.68 50.62 440.72 50.62 469.06 93.91 473.15 100.18 479.3 90.81 505.67 50.62 538.67 50.62 512.38 90.81 496.27 115.45 489.71 125.46 541.72 204.96"/>
      <path class="cls-1" d="M588.75,90.81v-42.08h-28.62v42.08h-37.38l-16.12,24.64h53.5v89.51h28.62v-89.51h22.03c3.26-6.83,7.64-13.1,13.14-18.77,2.09-2.13,4.26-4.1,6.51-5.87h-41.68Z"/>
      <path class="cls-1" d="M735.53,150.7c0-18.89-5.63-34.08-16.88-45.58-11.25-11.5-25.88-17.24-43.85-17.24-6.99,0-13.46.96-19.45,2.93-8.6,2.77-16.2,7.56-22.79,14.31-3.14,3.22-5.83,6.67-8.08,10.33-5.83,9.49-8.76,20.5-8.76,33.04,0,17,5.63,31.15,16.88,42.44,11.25,11.29,25.84,16.96,43.77,16.96,11.54,0,21.5-2.05,29.9-6.15,8.4-4.1,15.59-10.41,21.58-18.93l-24.12-11.33c-7.68,7.48-16.88,11.21-27.57,11.21-8.96,0-16.32-2.37-22.11-7.19-5.75-4.78-9.32-11.21-10.65-19.33h92l.12-5.47ZM644.7,133.62c3.22-7.07,6.71-12.02,10.49-14.79,1.81-1.33,3.7-2.49,5.67-3.38,4.62-2.25,9.73-3.38,15.35-3.38,3.5,0,6.83.44,9.93,1.37,3.38,1,6.55,2.53,9.44,4.62,5.59,3.98,9.32,9.16,11.21,15.55h-62.1Z"/>
      <path class="cls-1" d="M735.53,150.7c0-18.89-5.63-34.08-16.88-45.58-11.25-11.5-25.88-17.24-43.85-17.24-6.99,0-13.46.96-19.45,2.93-8.6,2.77-16.2,7.56-22.79,14.31-3.14,3.22-5.83,6.67-8.08,10.33-5.83,9.49-8.76,20.5-8.76,33.04,0,17,5.63,31.15,16.88,42.44,11.25,11.29,25.84,16.96,43.77,16.96,11.54,0,21.5-2.05,29.9-6.15,8.4-4.1,15.59-10.41,21.58-18.93l-24.12-11.33c-7.68,7.48-16.88,11.21-27.57,11.21-8.96,0-16.32-2.37-22.11-7.19-5.75-4.78-9.32-11.21-10.65-19.33h92l.12-5.47ZM644.7,133.62c3.22-7.07,6.71-12.02,10.49-14.79,1.81-1.33,3.7-2.49,5.67-3.38,4.62-2.25,9.73-3.38,15.35-3.38,3.5,0,6.83.44,9.93,1.37,3.38,1,6.55,2.53,9.44,4.62,5.59,3.98,9.32,9.16,11.21,15.55h-62.1Z"/>
      <path class="cls-1" d="M758.61,90.8h28.64v11.7c6.5-5.48,12.38-9.29,17.65-11.43,5.27-2.14,10.67-3.21,16.18-3.21,11.32,0,20.92,3.95,28.81,11.85,6.63,6.72,9.95,16.65,9.95,29.8v75.43h-28.33v-49.99c0-13.62-.61-22.67-1.83-27.14-1.22-4.47-3.35-7.88-6.39-10.22-3.03-2.34-6.78-3.51-11.25-3.51-5.79,0-10.76,1.94-14.92,5.82-4.15,3.88-7.03,9.24-8.64,16.08-.84,3.56-1.26,11.28-1.26,23.16v45.79h-28.64v-114.14Z"/>
      <path class="cls-1" d="M891.01,48.73h28.64v45.53h17v24.66h-17v86.02h-28.64v-86.02h-14.69v-24.66h14.69v-45.53Z"/>
      <path class="cls-1" d="M963.14,48.73c5.02,0,9.33,1.82,12.92,5.46,3.59,3.63,5.39,8.04,5.39,13.22s-1.78,9.46-5.33,13.06c-3.56,3.6-7.81,5.4-12.76,5.4s-9.44-1.84-13.03-5.51c-3.59-3.67-5.39-8.13-5.39-13.38s1.77-9.34,5.33-12.91c3.56-3.57,7.85-5.35,12.87-5.35ZM948.82,94.26h28.64v110.68h-28.64v-110.68Z"/>
      <path class="cls-1" d="M1057.09,87.86c10.77,0,20.89,2.69,30.37,8.08,9.48,5.39,16.87,12.69,22.19,21.93,5.31,9.23,7.97,19.2,7.97,29.9s-2.67,20.84-8.02,30.22c-5.35,9.37-12.64,16.7-21.87,21.98-9.24,5.28-19.41,7.92-30.53,7.92-16.37,0-30.34-5.82-41.91-17.47-11.58-11.65-17.36-25.79-17.36-42.44,0-17.83,6.54-32.7,19.62-44.58,11.47-10.35,24.65-15.53,39.55-15.53ZM1057.56,114.82c-8.9,0-16.3,3.1-22.23,9.29-5.92,6.19-8.88,14.11-8.88,23.76s2.92,17.97,8.78,24.13c5.85,6.15,13.26,9.23,22.22,9.23s16.43-3.11,22.38-9.34c5.95-6.22,8.93-14.23,8.93-24.02s-2.93-17.75-8.78-23.87c-5.85-6.12-13.33-9.18-22.44-9.18Z"/>
      <path class="cls-1" d="M1141.02,90.8h28.64v11.7c6.5-5.48,12.38-9.29,17.65-11.43,5.27-2.14,10.67-3.21,16.18-3.21,11.32,0,20.92,3.95,28.81,11.85,6.63,6.72,9.95,16.65,9.95,29.8v75.43h-28.33v-49.99c0-13.62-.61-22.67-1.83-27.14-1.22-4.47-3.35-7.88-6.39-10.22-3.03-2.34-6.78-3.51-11.25-3.51-5.79,0-10.76,1.94-14.92,5.82-4.15,3.88-7.03,9.24-8.64,16.08-.84,3.56-1.26,11.28-1.26,23.16v45.79h-28.64v-114.14Z"/>
      <g>
        <path class="cls-1" d="M441.37,239.9l-3.39,2.6c-1.87-2.44-4.12-4.29-6.74-5.54-2.62-1.26-5.5-1.89-8.65-1.89-3.43,0-6.61.82-9.54,2.47s-5.19,3.86-6.8,6.64c-1.61,2.78-2.41,5.91-2.41,9.38,0,5.25,1.8,9.63,5.4,13.14s8.14,5.27,13.62,5.27c6.03,0,11.07-2.36,15.13-7.08l3.39,2.57c-2.15,2.73-4.82,4.84-8.03,6.33-3.21,1.49-6.79,2.24-10.75,2.24-7.53,0-13.47-2.51-17.82-7.52-3.65-4.23-5.47-9.34-5.47-15.33,0-6.3,2.21-11.6,6.63-15.9s9.95-6.45,16.6-6.45c4.02,0,7.65.79,10.88,2.38,3.24,1.59,5.89,3.82,7.96,6.69Z"/>
        <path class="cls-1" d="M463.41,231.91h8.57c4.78,0,8.02.2,9.71.59,2.55.59,4.63,1.84,6.23,3.76s2.4,4.29,2.4,7.1c0,2.34-.55,4.4-1.65,6.18-1.1,1.78-2.68,3.12-4.72,4.03s-4.88,1.37-8.49,1.39l15.48,19.98h-5.32l-15.48-19.98h-2.43v19.98h-4.3v-43.04ZM467.71,236.12v14.63l7.41.06c2.87,0,5-.27,6.37-.82,1.38-.55,2.45-1.42,3.22-2.62.77-1.2,1.16-2.54,1.16-4.02s-.39-2.75-1.17-3.94c-.78-1.18-1.81-2.02-3.08-2.53-1.27-.51-3.38-.76-6.33-.76h-7.59Z"/>
        <path class="cls-1" d="M512.76,231.91h24.66v4.21h-20.36v13.49h20.19v4.21h-20.19v16.91h20.19v4.21h-24.49v-43.04Z"/>
        <path class="cls-1" d="M555.61,231.91h4.42l8.79,31.01,12.34-31.01h.89l12.2,31.01,8.94-31.01h4.39l-12.37,43.04h-.8l-12.77-32.56-13.02,32.56h-.8l-12.2-43.04Z"/>
        <path class="cls-1" d="M654.24,236.12v-4.21h23.58v4.21h-9.6v38.83h-4.39v-38.83h-9.6Z"/>
        <path class="cls-1" d="M697.24,231.91h24.66v4.21h-20.36v13.49h20.19v4.21h-20.19v16.91h20.19v4.21h-24.49v-43.04Z"/>
        <path class="cls-1" d="M782.6,239.9l-3.39,2.6c-1.87-2.44-4.12-4.29-6.74-5.54-2.62-1.26-5.5-1.89-8.65-1.89-3.43,0-6.61.82-9.54,2.47s-5.19,3.86-6.8,6.64c-1.61,2.78-2.41,5.91-2.41,9.38,0,5.25,1.8,9.63,5.4,13.14s8.14,5.27,13.62,5.27c6.03,0,11.07-2.36,15.13-7.08l3.39,2.57c-2.15,2.73-4.82,4.84-8.03,6.33-3.21,1.49-6.79,2.24-10.75,2.24-7.53,0-13.47-2.51-17.82-7.52-3.65-4.23-5.47-9.34-5.47-15.33,0-6.3,2.21-11.6,6.63-15.9s9.95-6.45,16.6-6.45c4.02,0,7.65.79,10.88,2.38,3.24,1.59,5.89,3.82,7.96,6.69Z"/>
        <path class="cls-1" d="M804.36,231.91h4.3v18.05h21.91v-18.05h4.3v43.04h-4.3v-20.77h-21.91v20.77h-4.3v-43.04Z"/>
        <path class="cls-1" d="M858.56,274.95v-43.04h.94l28.64,32.99v-32.99h4.24v43.04h-.97l-28.41-32.59v32.59h-4.45Z"/>
        <path class="cls-1" d="M936.53,230.83c6.52,0,11.97,2.17,16.37,6.52s6.59,9.7,6.59,16.06-2.19,11.64-6.57,16.03c-4.38,4.39-9.72,6.58-16.03,6.58s-11.77-2.18-16.16-6.55c-4.39-4.37-6.59-9.65-6.59-15.86,0-4.13,1-7.97,3-11.5,2-3.53,4.73-6.3,8.18-8.29,3.46-2,7.19-3,11.21-3ZM936.72,235.01c-3.18,0-6.2.83-9.06,2.49s-5.08,3.89-6.68,6.71c-1.6,2.81-2.4,5.94-2.4,9.4,0,5.11,1.77,9.43,5.32,12.96,3.54,3.52,7.82,5.29,12.82,5.29,3.34,0,6.43-.81,9.27-2.43s5.06-3.84,6.65-6.65c1.59-2.81,2.39-5.93,2.39-9.37s-.8-6.5-2.39-9.27c-1.59-2.76-3.83-4.97-6.73-6.63s-5.96-2.49-9.2-2.49Z"/>
        <path class="cls-1" d="M981.3,231.91h4.3v38.88h16.56v4.15h-20.86v-43.04Z"/>
        <path class="cls-1" d="M1042.66,230.83c6.52,0,11.97,2.17,16.37,6.52s6.59,9.7,6.59,16.06-2.19,11.64-6.57,16.03c-4.38,4.39-9.72,6.58-16.03,6.58s-11.77-2.18-16.16-6.55c-4.39-4.37-6.59-9.65-6.59-15.86,0-4.13,1-7.97,3-11.5,2-3.53,4.73-6.3,8.18-8.29,3.46-2,7.19-3,11.21-3ZM1042.85,235.01c-3.18,0-6.2.83-9.06,2.49s-5.08,3.89-6.68,6.71c-1.6,2.81-2.4,5.94-2.4,9.4,0,5.11,1.77,9.43,5.32,12.96,3.54,3.52,7.82,5.29,12.82,5.29,3.34,0,6.43-.81,9.27-2.43s5.06-3.84,6.65-6.65c1.59-2.81,2.39-5.93,2.39-9.37s-.8-6.5-2.39-9.27c-1.59-2.76-3.83-4.97-6.73-6.63s-5.96-2.49-9.2-2.49Z"/>
        <path class="cls-1" d="M1128.94,239.13l-3.34,3.16c-2.4-2.36-5.03-4.15-7.88-5.37s-5.64-1.83-8.35-1.83c-3.38,0-6.59.83-9.64,2.49s-5.42,3.91-7.09,6.74c-1.68,2.84-2.52,5.84-2.52,9s.87,6.32,2.6,9.23c1.74,2.92,4.13,5.21,7.2,6.88,3.06,1.67,6.42,2.5,10.06,2.5,4.43,0,8.17-1.25,11.24-3.75,3.06-2.5,4.88-5.73,5.44-9.71h-13.72v-4.15h18.55c-.04,6.65-2.01,11.93-5.92,15.84-3.91,3.91-9.14,5.87-15.7,5.87-7.96,0-14.26-2.71-18.9-8.13-3.57-4.17-5.35-9-5.35-14.48,0-4.08,1.02-7.87,3.07-11.38,2.05-3.51,4.86-6.26,8.43-8.24s7.61-2.97,12.11-2.97c3.65,0,7.08.66,10.3,1.97,3.22,1.32,6.36,3.43,9.42,6.33Z"/>
        <path class="cls-1" d="M1152.24,231.91h4.3v43.04h-4.3v-43.04Z"/>
        <path class="cls-1" d="M1179.62,231.91h24.66v4.21h-20.36v13.49h20.19v4.21h-20.19v16.91h20.19v4.21h-24.49v-43.04Z"/>
        <path class="cls-1" d="M1220.45,266.93l3.66-2.19c2.57,4.74,5.55,7.11,8.92,7.11,1.44,0,2.8-.34,4.07-1.01,1.27-.67,2.23-1.58,2.9-2.71.66-1.13,1-2.33,1-3.6,0-1.44-.49-2.86-1.46-4.24-1.35-1.91-3.8-4.21-7.37-6.91-3.59-2.71-5.82-4.67-6.7-5.88-1.52-2.03-2.28-4.22-2.28-6.58,0-1.87.45-3.58,1.35-5.12s2.16-2.75,3.79-3.64,3.4-1.33,5.31-1.33c2.03,0,3.92.5,5.69,1.51s3.63,2.85,5.6,5.54l-3.51,2.66c-1.62-2.15-3-3.56-4.14-4.24-1.14-.68-2.38-1.02-3.73-1.02-1.74,0-3.16.53-4.26,1.58-1.1,1.05-1.65,2.35-1.65,3.89,0,.94.2,1.84.58,2.72.39.88,1.1,1.83,2.14,2.87.57.55,2.42,1.98,5.56,4.3,3.73,2.75,6.28,5.2,7.67,7.34,1.38,2.15,2.08,4.3,2.08,6.47,0,3.12-1.19,5.83-3.55,8.13-2.37,2.3-5.25,3.45-8.65,3.45-2.61,0-4.98-.7-7.11-2.09-2.13-1.39-4.09-3.73-5.88-7.01Z"/>
      </g>
      <g>
        <path class="cls-1" d="M244.03,323.75H79.72C35.76,323.75,0,287.99,0,244.03V79.72C0,35.76,35.76,0,79.72,0h164.31c43.96,0,79.72,35.76,79.72,79.72v164.31c0,43.96-35.76,79.72-79.72,79.72ZM79.72,12.73C42.78,12.73,12.73,42.78,12.73,79.72v164.31c0,36.94,30.05,66.99,66.99,66.99h164.31c36.94,0,66.99-30.05,66.99-66.99V79.72c0-36.94-30.05-66.99-66.99-66.99H79.72Z"/>
        <path class="cls-1" d="M130.13,226.93c-.07,11.79.27,27.12-12.05,32.61-7.22,3.5-19.53,3.22-29.35,3.02-14.19.05-26.3-4.68-27.9-20.36-.58-4.04-.71-8.32-.76-12.44-.08-15.24-.07-31.02,15.58-35.36,11.77-2.61,27.17-2.55,38.72-.11l.37.11c14.49,3.74,15.54,19.63,15.38,32.52ZM249.99,191.52c-12.98-5.44-30.55-.62-41.72-10.16-11.22-11.76-9.51-37.73,7.23-43.03l.36-.12c14.31-4.9,40.02.94,45.33-17.75,2.07-6.35,2.39-13.64,2.48-20.39-.37-14.32.56-29.98-13.43-35.72-11.21-4.01-25.03-3.39-36.88-2.48-34.09,2.83-16.36,35.17-31.47,53.03-9.2,8.97-29.9,8.83-38.56-.75-8.58-10.51-5-26.46-9.66-38.4-2.36-7.01-7.09-11.12-15.04-12.87-13.62-2.48-32.44-2.71-44.57,1.2-12.35,3.98-13.63,18.7-13.94,29.92-.39,26.12,1.23,40.54,30.31,41.51,9.39.73,20.17.64,27.54,7.08,10.99,10.4,4.82,35.93,14.42,46.29,6.25,6.8,16.3,7.31,25.1,8.12,35.64,1.37,29.03,19.38,33.35,46.45,2.46,16.22,16.65,18.96,30.75,19.14,13.95-.19,29.73,1.21,37.32-10.01,4.44-7.28,4.74-18.22,4.76-28.28-.41-13.58-.38-27.76-13.69-32.79Z"/>
      </g>
    </g>
  </g>
</svg>