<svg width="27" height="27" viewBox="0 0 27 27" fill="none" xmlns="http://www.w3.org/2000/svg">
<circle cx="13.5" cy="13.5" r="13" stroke="white"/>
<path d="M17.1153 10.1853C16.9769 10.1853 16.8415 10.2264 16.7264 10.3033C16.6113 10.3802 16.5216 10.4895 16.4686 10.6174C16.4156 10.7454 16.4018 10.8861 16.4288 11.0219C16.4558 11.1577 16.5225 11.2824 16.6204 11.3803C16.7182 11.4782 16.843 11.5449 16.9788 11.5719C17.1145 11.5989 17.2553 11.585 17.3832 11.532C17.5111 11.4791 17.6204 11.3893 17.6974 11.2742C17.7743 11.1591 17.8153 11.0238 17.8153 10.8853C17.8153 10.6997 17.7416 10.5216 17.6103 10.3904C17.479 10.2591 17.301 10.1853 17.1153 10.1853ZM19.7987 11.597C19.7873 11.113 19.6967 10.6341 19.5303 10.1795C19.382 9.79049 19.1512 9.43824 18.8537 9.14699C18.5648 8.84799 18.2117 8.6186 17.8212 8.47616C17.3677 8.30475 16.8883 8.21203 16.4037 8.20199C15.7853 8.16699 15.587 8.16699 14.0003 8.16699C12.4137 8.16699 12.2153 8.16699 11.597 8.20199C11.1123 8.21203 10.6329 8.30475 10.1795 8.47616C9.78964 8.62004 9.43687 8.84924 9.14699 9.14699C8.84799 9.43585 8.6186 9.78892 8.47616 10.1795C8.30475 10.6329 8.21203 11.1123 8.20199 11.597C8.16699 12.2153 8.16699 12.4137 8.16699 14.0003C8.16699 15.587 8.16699 15.7853 8.20199 16.4037C8.21203 16.8883 8.30475 17.3677 8.47616 17.8212C8.6186 18.2117 8.84799 18.5648 9.14699 18.8537C9.43687 19.1514 9.78964 19.3806 10.1795 19.5245C10.6329 19.6959 11.1123 19.7886 11.597 19.7987C12.2153 19.8337 12.4137 19.8337 14.0003 19.8337C15.587 19.8337 15.7853 19.8337 16.4037 19.7987C16.8883 19.7886 17.3677 19.6959 17.8212 19.5245C18.2117 19.3821 18.5648 19.1527 18.8537 18.8537C19.1525 18.5635 19.3835 18.2109 19.5303 17.8212C19.6967 17.3665 19.7873 16.8877 19.7987 16.4037C19.7987 15.7853 19.8337 15.587 19.8337 14.0003C19.8337 12.4137 19.8337 12.2153 19.7987 11.597ZM18.7487 16.3337C18.7444 16.7039 18.6773 17.0708 18.5503 17.4187C18.4572 17.6725 18.3076 17.9019 18.1128 18.0895C17.9236 18.2823 17.6947 18.4316 17.442 18.527C17.0942 18.654 16.7273 18.7211 16.357 18.7253C15.7737 18.7545 15.5578 18.7603 14.0237 18.7603C12.4895 18.7603 12.2737 18.7603 11.6903 18.7253C11.3058 18.7325 10.923 18.6733 10.5587 18.5503C10.317 18.45 10.0986 18.3011 9.91699 18.1128C9.72338 17.9254 9.57565 17.6959 9.48533 17.442C9.34291 17.0892 9.26392 16.714 9.25199 16.3337C9.25199 15.7503 9.21699 15.5345 9.21699 14.0003C9.21699 12.4662 9.21699 12.2503 9.25199 11.667C9.25461 11.2884 9.32371 10.9133 9.45616 10.5587C9.55885 10.3124 9.71648 10.093 9.91699 9.91699C10.0942 9.71642 10.3132 9.55713 10.5587 9.45033C10.9142 9.32202 11.289 9.25496 11.667 9.25199C12.2503 9.25199 12.4662 9.21699 14.0003 9.21699C15.5345 9.21699 15.7503 9.21699 16.3337 9.25199C16.7039 9.25624 17.0708 9.3233 17.4187 9.45033C17.6837 9.54871 17.9217 9.70865 18.1128 9.91699C18.304 10.0962 18.4534 10.3153 18.5503 10.5587C18.68 10.9139 18.7471 11.2889 18.7487 11.667C18.7778 12.2503 18.7837 12.4662 18.7837 14.0003C18.7837 15.5345 18.7778 15.7503 18.7487 16.3337ZM14.0003 11.0078C13.4087 11.009 12.8307 11.1855 12.3394 11.515C11.848 11.8445 11.4654 12.3123 11.2398 12.8592C11.0142 13.4061 10.9557 14.0076 11.0719 14.5877C11.188 15.1678 11.4735 15.7005 11.8922 16.1184C12.3109 16.5363 12.8442 16.8208 13.4245 16.9357C14.0048 17.0507 14.6062 16.9911 15.1527 16.7645C15.6992 16.5378 16.1662 16.1542 16.4947 15.6623C16.8233 15.1703 16.9987 14.5919 16.9987 14.0003C16.9994 13.6066 16.9224 13.2167 16.7719 12.8529C16.6214 12.4891 16.4005 12.1586 16.1218 11.8805C15.8432 11.6024 15.5123 11.3821 15.1482 11.2324C14.7841 11.0826 14.394 11.0063 14.0003 11.0078ZM14.0003 15.9428C13.6161 15.9428 13.2406 15.8289 12.9211 15.6155C12.6017 15.402 12.3527 15.0986 12.2057 14.7437C12.0587 14.3887 12.0202 13.9982 12.0952 13.6214C12.1701 13.2446 12.3551 12.8984 12.6268 12.6268C12.8984 12.3551 13.2446 12.1701 13.6214 12.0952C13.9982 12.0202 14.3887 12.0587 14.7437 12.2057C15.0986 12.3527 15.402 12.6017 15.6155 12.9211C15.8289 13.2406 15.9428 13.6161 15.9428 14.0003C15.9428 14.2554 15.8926 14.508 15.795 14.7437C15.6973 14.9794 15.5543 15.1935 15.3739 15.3739C15.1935 15.5543 14.9794 15.6973 14.7437 15.795C14.508 15.8926 14.2554 15.9428 14.0003 15.9428Z" fill="white"/>
</svg>
