<svg width="27" height="27" viewBox="0 0 27 27" fill="none" xmlns="http://www.w3.org/2000/svg">
<path d="M11.0482 7.91627C11.048 8.22569 10.925 8.52238 10.7061 8.74106C10.4872 8.95974 10.1903 9.08251 9.88093 9.08236C9.57151 9.0822 9.27482 8.95914 9.05614 8.74024C8.83746 8.52133 8.71469 8.22453 8.71484 7.91511C8.715 7.60569 8.83806 7.309 9.05697 7.09032C9.27587 6.87164 9.57267 6.74887 9.88209 6.74902C10.1915 6.74918 10.4882 6.87224 10.7069 7.09114C10.9256 7.31005 11.0483 7.60685 11.0482 7.91627ZM11.0832 9.94627H8.74984V17.2496H11.0832V9.94627ZM14.7698 9.94627H12.4482V17.2496H14.7465V13.4171C14.7465 11.2821 17.529 11.0838 17.529 13.4171V17.2496H19.8332V12.6238C19.8332 9.02461 15.7148 9.15877 14.7465 10.9263L14.7698 9.94627Z" fill="white"/>
<circle cx="13.5" cy="13.5" r="13" stroke="white"/>
</svg>
