<svg width="32" height="32" viewBox="0 0 32 32" fill="none" xmlns="http://www.w3.org/2000/svg">
<rect width="32" height="32" rx="16" fill="#F7F8F9"/>
<path d="M20.2421 20.2426C20.5025 19.9823 20.5025 19.5602 20.2421 19.2998L16.9428 16.0005L20.243 12.7002C20.5034 12.4398 20.5034 12.0177 20.243 11.7574C19.9827 11.497 19.5606 11.497 19.3002 11.7574L15.9999 15.0577L12.6997 11.7574C12.4393 11.497 12.0172 11.497 11.7568 11.7574C11.4965 12.0177 11.4965 12.4398 11.7568 12.7002L15.0571 16.0005L11.7578 19.2998C11.4974 19.5602 11.4974 19.9823 11.7578 20.2426C12.0181 20.503 12.4402 20.503 12.7006 20.2426L15.9999 16.9433L19.2993 20.2426C19.5597 20.503 19.9818 20.503 20.2421 20.2426Z" fill="#35467D"/>
</svg>
